            <svg width="90" height="15" viewBox="0 0 135 36" fill="none" xmlns="http://www.w3.org/2000/svg">
                <path d="M0.468 5.472V2.52H17.856V5.472H10.728V27H7.596V5.472H0.468ZM28.9108 11.772C27.8308 11.772 26.7748 11.964 25.7428 12.348C24.7348 12.732 23.6548 13.464 22.5028 14.544V27H19.5508V9.18H22.3588V12.06C23.5828 10.86 24.6988 10.02 25.7068 9.54C26.7388 9.06 27.8068 8.82 28.9108 8.82V11.772ZM46.8816 16.992V19.152C46.8816 21.696 46.2216 23.7 44.9016 25.164C43.6056 26.628 41.7456 27.36 39.3216 27.36C36.9216 27.36 35.0616 26.628 33.7416 25.164C32.4216 23.7 31.7616 21.696 31.7616 19.152V16.992C31.7616 14.496 32.4096 12.516 33.7056 11.052C35.0256 9.564 36.8976 8.82 39.3216 8.82C41.7456 8.82 43.6056 9.564 44.9016 11.052C46.2216 12.516 46.8816 14.496 46.8816 16.992ZM43.8216 16.992C43.8216 15.288 43.4376 13.956 42.6696 12.996C41.9016 12.012 40.7856 11.52 39.3216 11.52C37.8816 11.52 36.7656 12.012 35.9736 12.996C35.2056 13.956 34.8216 15.288 34.8216 16.992V19.152C34.8216 20.928 35.2056 22.296 35.9736 23.256C36.7656 24.216 37.8816 24.696 39.3216 24.696C40.7856 24.696 41.9016 24.216 42.6696 23.256C43.4376 22.296 43.8216 20.928 43.8216 19.152V16.992ZM66.3581 16.992V19.152C66.3581 21.696 65.6981 23.7 64.3781 25.164C63.0821 26.628 61.2221 27.36 58.7981 27.36C56.3981 27.36 54.5381 26.628 53.2181 25.164C51.8981 23.7 51.2381 21.696 51.2381 19.152V16.992C51.2381 14.496 51.8861 12.516 53.1821 11.052C54.5021 9.564 56.3741 8.82 58.7981 8.82C61.2221 8.82 63.0821 9.564 64.3781 11.052C65.6981 12.516 66.3581 14.496 66.3581 16.992ZM63.2981 16.992C63.2981 15.288 62.9141 13.956 62.1461 12.996C61.3781 12.012 60.2621 11.52 58.7981 11.52C57.3581 11.52 56.2421 12.012 55.4501 12.996C54.6821 13.956 54.2981 15.288 54.2981 16.992V19.152C54.2981 20.928 54.6821 22.296 55.4501 23.256C56.2421 24.216 57.3581 24.696 58.7981 24.696C60.2621 24.696 61.3781 24.216 62.1461 23.256C62.9141 22.296 63.2981 20.928 63.2981 19.152V16.992ZM82.7027 27L77.6987 18.756C77.2427 19.212 76.7627 19.68 76.2587 20.16C75.7547 20.64 75.2267 21.12 74.6747 21.6V27H71.7227V0.36H74.6747V18.288C76.2347 16.776 77.6147 15.3 78.8147 13.86C80.0387 12.42 81.1547 10.86 82.1627 9.18H85.5467C84.6827 10.62 83.7947 11.952 82.8827 13.176C81.9947 14.376 80.9867 15.6 79.8587 16.848L86.2667 27H82.7027ZM93.1359 4.824H89.8239V1.512H93.1359V4.824ZM92.9559 27H90.0039V9.18H92.9559V27ZM107.888 11.592C107.216 11.592 106.424 11.76 105.512 12.096C104.624 12.432 103.544 13.116 102.272 14.148V27H99.3203V9.18H102.128V11.664C103.4 10.584 104.552 9.84 105.584 9.432C106.64 9.024 107.648 8.82 108.608 8.82C110.264 8.82 111.524 9.348 112.388 10.404C113.276 11.436 113.72 12.912 113.72 14.832V27H110.768V15.264C110.768 12.816 109.808 11.592 107.888 11.592ZM134.143 29.232C134.143 30.984 133.423 32.388 131.983 33.444C130.567 34.5 128.611 35.028 126.115 35.028C124.867 35.028 123.559 34.86 122.191 34.524C120.847 34.188 119.575 33.648 118.375 32.904L119.383 30.6C120.583 31.272 121.735 31.74 122.839 32.004C123.967 32.292 125.059 32.436 126.115 32.436C127.747 32.436 129.007 32.172 129.895 31.644C130.783 31.116 131.227 30.408 131.227 29.52C131.227 28.872 131.011 28.368 130.579 28.008C130.147 27.672 129.451 27.504 128.491 27.504H124.351C122.791 27.504 121.663 27.132 120.967 26.388C120.271 25.644 119.923 24.828 119.923 23.94C119.923 23.316 120.067 22.704 120.355 22.104C120.643 21.48 121.051 20.868 121.579 20.268C120.739 19.764 120.067 19.08 119.563 18.216C119.059 17.328 118.807 16.26 118.807 15.012C118.807 13.644 119.095 12.504 119.671 11.592C120.271 10.68 121.063 9.996 122.047 9.54C123.031 9.06 124.135 8.82 125.359 8.82H125.971C126.811 8.82 127.579 8.94 128.275 9.18H134.683V11.808L130.795 11.268C131.299 11.7 131.707 12.24 132.019 12.888C132.331 13.512 132.487 14.28 132.487 15.192C132.487 16.488 132.187 17.58 131.587 18.468C131.011 19.356 130.231 20.04 129.247 20.52C128.263 20.976 127.171 21.204 125.971 21.204H125.359C125.047 21.204 124.747 21.192 124.459 21.168C124.171 21.12 123.883 21.072 123.595 21.024C122.899 21.792 122.551 22.548 122.551 23.292C122.551 24.252 123.223 24.732 124.567 24.732H128.599C130.327 24.732 131.683 25.116 132.667 25.884C133.651 26.652 134.143 27.768 134.143 29.232ZM125.971 18.648C126.907 18.648 127.735 18.348 128.455 17.748C129.175 17.148 129.535 16.236 129.535 15.012C129.535 13.812 129.175 12.912 128.455 12.312C127.735 11.688 126.907 11.376 125.971 11.376H125.359C124.399 11.376 123.559 11.688 122.839 12.312C122.119 12.912 121.759 13.812 121.759 15.012C121.759 16.236 122.119 17.148 122.839 17.748C123.559 18.348 124.399 18.648 125.359 18.648H125.971Z" fill="white" />
            </svg>